HIERARCHY
ROOT joint_Root
{
	OFFSET 0.0 0.0 0.0
	CHANNELS 6 Xposition Yposition Zposition Zrotation Xrotation Yrotation 
	JOINT Hips
	{
		OFFSET 4.5925 91.4895 -427.239
		CHANNELS 6 Xposition Yposition Zposition Zrotation Xrotation Yrotation 
		JOINT Spine
		{
			OFFSET 15.7357 0.0 0.0
			CHANNELS 6 Xposition Yposition Zposition Zrotation Xrotation Yrotation 
			JOINT Chest
			{
				OFFSET 8.98455 -0.406207 0.0
				CHANNELS 6 Xposition Yposition Zposition Zrotation Xrotation Yrotation 
				JOINT Neck
				{
					OFFSET 16.3773 0.0 0.0
					CHANNELS 6 Xposition Yposition Zposition Zrotation Xrotation Yrotation 
					JOINT Head
					{
						OFFSET 6.45672 0.0 0.0
						CHANNELS 6 Xposition Yposition Zposition Zrotation Xrotation Yrotation 
						End Site
						{
							OFFSET 0.0 0.0 0.0
						}
					}
				}
				JOINT Shoulder_L
				{
					OFFSET 12.9942 -0.242716 4.98039
					CHANNELS 6 Xposition Yposition Zposition Zrotation Xrotation Yrotation 
					JOINT UpperArm_L
					{
						OFFSET 5.34809 0.0 0.0
						CHANNELS 6 Xposition Yposition Zposition Zrotation Xrotation Yrotation 
						JOINT LowerArm_L
						{
							OFFSET 24.3286 1.87007e-05 0.0
							CHANNELS 6 Xposition Yposition Zposition Zrotation Xrotation Yrotation 
							JOINT Hand_L
							{
								OFFSET 22.2916 0.0 0.0
								CHANNELS 6 Xposition Yposition Zposition Zrotation Xrotation Yrotation 
								End Site
								{
									OFFSET 0.0 0.0 0.0
								}
							}
						}
					}
				}
				JOINT Shoulder_R
				{
					OFFSET 12.9945 -0.242716 -4.98039
					CHANNELS 6 Xposition Yposition Zposition Zrotation Xrotation Yrotation 
					JOINT UpperArm_R
					{
						OFFSET -5.34813 0.0 0.0
						CHANNELS 6 Xposition Yposition Zposition Zrotation Xrotation Yrotation 
						JOINT LowerArm_R
						{
							OFFSET -24.3289 0.000322201 0.0
							CHANNELS 6 Xposition Yposition Zposition Zrotation Xrotation Yrotation 
							JOINT Hand_R
							{
								OFFSET -22.2915 -0.000108084 0.0
								CHANNELS 6 Xposition Yposition Zposition Zrotation Xrotation Yrotation 
								End Site
								{
									OFFSET 0.0 0.0 0.0
								}
							}
						}
					}
				}
			}
		}
		JOINT UpperLeg_L
		{
			OFFSET -2.19248 -6.46944 0.0
			CHANNELS 6 Xposition Yposition Zposition Zrotation Xrotation Yrotation 
			JOINT LowerLeg_L
			{
				OFFSET 39.0811 0.0 -1.23785e-05
				CHANNELS 6 Xposition Yposition Zposition Zrotation Xrotation Yrotation 
				JOINT Foot_L
				{
					OFFSET 40.9854 0.0 -1.26872e-05
					CHANNELS 6 Xposition Yposition Zposition Zrotation Xrotation Yrotation 
					JOINT Toes_L
					{
						OFFSET 11.7543 0.0 0.0
						CHANNELS 6 Xposition Yposition Zposition Zrotation Xrotation Yrotation 
						End Site
						{
							OFFSET 0.0 0.0 0.0
						}
					}
				}
			}
		}
		JOINT UpperLeg_R
		{
			OFFSET -2.19251 6.46944 0.0
			CHANNELS 6 Xposition Yposition Zposition Zrotation Xrotation Yrotation 
			JOINT LowerLeg_R
			{
				OFFSET -39.0811 -0.00228153 -0.0401928
				CHANNELS 6 Xposition Yposition Zposition Zrotation Xrotation Yrotation 
				JOINT Foot_R
				{
					OFFSET -40.9854 0.0 0.0
					CHANNELS 6 Xposition Yposition Zposition Zrotation Xrotation Yrotation 
					JOINT Toes_R
					{
						OFFSET -11.7543 0.0 0.0
						CHANNELS 6 Xposition Yposition Zposition Zrotation Xrotation Yrotation 
						End Site
						{
							OFFSET 0.0 0.0 0.0
						}
					}
				}
			}
		}
	}
}
MOTION
Frames:	6
Frame Time:	0.0333333
0.000000 0.000000 0.000000 0.000000 0.000000 -0.000000 -1.132780 90.538300 1.860680 90.146100 -3.383560 11.531100 15.735700 0.000005 -0.000001 86.821000 81.649900 -86.503700 8.984550 -0.406207 -0.000000 8.912040 -0.918172 0.705634 16.377300 -0.000001 -0.000001 12.895700 -4.727380 1.351760 6.456720 -0.000001 -0.000000 5.435060 -5.206730 -1.586370 12.994200 -0.242716 4.980390 -91.095300 4.499930 -76.304800 5.348090 -0.000007 -0.000001 -62.630400 39.722000 -21.822400 24.328600 0.000019 0.000005 8.393090 21.602600 -21.838500 22.291600 -0.000001 0.000005 6.090730 5.281300 0.590604 12.994500 -0.242716 -4.980390 88.687200 10.290500 -82.689900 -5.348130 -0.000001 -0.000004 -62.716700 36.085800 -13.460000 -24.328900 0.000322 -0.000009 1.297140 3.382120 -21.013400 -22.291500 -0.000108 -0.000004 11.881200 5.405580 -3.119770 -2.192480 -6.469440 -0.000000 -173.886000 -13.246200 3.248470 39.081100 -0.000007 -0.000012 -0.204558 0.347320 30.496800 40.985400 -0.000006 -0.000013 -0.313901 5.721060 -71.671400 11.754300 -0.000000 0.000003 -0.000178 -0.001676 -16.641000 -2.192510 6.469440 -0.000001 172.413000 20.440800 -175.508000 -39.081100 -0.002282 -0.040193 -0.228276 0.393971 30.447400 -40.985400 0.000008 0.000006 4.125940 14.931400 -72.975100 -11.754300 -0.000006 -0.000006 -0.001801 -0.026197 -17.638300
0.000000 0.000000 0.000000 0.000000 0.000000 -0.000000 -1.172840 90.536900 1.774990 90.177600 -3.317770 11.558100 15.735700 0.000005 -0.000001 86.590500 81.654700 -86.275800 8.984550 -0.406207 -0.000000 8.898820 -0.984424 0.705381 16.377300 -0.000001 -0.000001 13.217000 -4.802940 1.524140 6.456720 -0.000001 -0.000000 5.668740 -5.269340 -1.394870 12.994200 -0.242716 4.980390 -91.054000 4.361770 -76.400900 5.348090 -0.000007 -0.000001 -62.524300 39.150700 -22.316000 24.328600 0.000019 0.000005 8.489520 22.022100 -21.706100 22.291600 -0.000001 0.000005 5.937420 5.279280 0.645869 12.994500 -0.242716 -4.980390 88.704300 10.206100 -82.725400 -5.348130 -0.000001 -0.000004 -62.863100 36.023500 -13.371900 -24.328900 0.000322 -0.000009 1.305560 3.421300 -20.916900 -22.291500 -0.000108 -0.000004 11.806600 5.406390 -3.146330 -2.192480 -6.469440 -0.000000 -173.899000 -13.185700 3.181540 39.081100 -0.000007 -0.000012 -0.207190 0.351298 30.531800 40.985400 -0.000006 -0.000013 -0.332370 5.753970 -71.615100 11.754300 -0.000000 0.000003 -0.000173 -0.001641 -16.639700 -2.192510 6.469440 -0.000001 172.428000 20.468900 -175.570000 -39.081100 -0.002282 -0.040193 -0.226592 0.389956 30.521200 -40.985400 0.000008 0.000006 4.160600 14.865400 -72.971500 -11.754300 -0.000006 -0.000006 -0.001745 -0.025476 -17.609000
0.000000 0.000000 0.000000 0.000000 0.000000 -0.000000 -1.216110 90.549100 1.680780 90.191700 -3.179800 11.606200 15.735700 0.000005 -0.000001 86.325700 81.642900 -86.012300 8.984550 -0.406207 -0.000000 8.918010 -1.062460 0.708942 16.377300 -0.000001 -0.000001 13.565100 -4.952860 1.693840 6.456720 -0.000001 -0.000000 5.988790 -5.458710 -1.118620 12.994200 -0.242716 4.980390 -91.012700 4.231520 -76.527500 5.348090 -0.000007 -0.000001 -62.016800 38.361000 -23.122100 24.328600 0.000019 0.000005 8.620080 22.270600 -21.801500 22.291600 -0.000001 0.000005 5.532410 5.277220 0.702231 12.994500 -0.242716 -4.980390 88.715400 10.150600 -82.748600 -5.348130 -0.000001 -0.000004 -62.916500 35.881000 -13.256400 -24.328900 0.000322 -0.000009 1.318210 3.476010 -20.798600 -22.291500 -0.000108 -0.000004 11.696700 5.404260 -3.076240 -2.192480 -6.469440 -0.000000 -173.904000 -13.105300 3.144830 39.081100 -0.000007 -0.000012 -0.204730 0.347335 30.516800 40.985400 -0.000006 -0.000013 -0.340464 5.804920 -71.521300 11.754300 -0.000000 0.000003 -0.000181 -0.001699 -16.641800 -2.192510 6.469440 -0.000001 172.409000 20.625400 -175.554000 -39.081100 -0.002282 -0.040193 -0.225854 0.388822 30.513600 -40.985400 0.000008 0.000006 4.208060 14.884300 -72.927400 -11.754300 -0.000006 -0.000006 -0.001733 -0.025322 -17.602700
0.000000 0.000000 0.000000 0.000000 0.000000 -0.000000 -1.267500 90.558100 1.576200 90.218500 -3.005750 11.664800 15.735700 0.000005 -0.000001 86.107500 81.628200 -85.794200 8.984550 -0.406207 -0.000000 8.943440 -1.127540 0.714249 16.377300 -0.000001 -0.000001 13.970500 -5.132340 1.870500 6.456720 -0.000001 -0.000000 6.306720 -5.679980 -0.784390 12.994200 -0.242716 4.980390 -90.982700 4.137680 -76.627000 5.348090 -0.000007 -0.000001 -61.028400 37.301400 -24.311700 24.328600 0.000019 0.000005 9.086270 22.854900 -22.379900 22.291600 -0.000001 0.000005 5.039390 5.278290 0.673005 12.994500 -0.242716 -4.980390 88.729900 10.056600 -82.764100 -5.348130 -0.000001 -0.000004 -62.925600 35.801900 -13.078700 -24.328900 0.000322 -0.000009 1.324860 3.525870 -20.624300 -22.291500 -0.000108 -0.000004 11.748100 5.402500 -3.018860 -2.192480 -6.469440 -0.000000 -173.891000 -13.065400 3.101260 39.081100 -0.000007 -0.000012 -0.205461 0.348577 30.516600 40.985400 -0.000006 -0.000013 -0.337267 5.933480 -71.420200 11.754300 -0.000000 0.000003 -0.000193 -0.001796 -16.645400 -2.192510 6.469440 -0.000001 172.423000 20.687700 -175.557000 -39.081100 -0.002282 -0.040193 -0.225059 0.387173 30.533000 -40.985400 0.000008 0.000006 4.222450 14.752600 -72.885400 -11.754300 -0.000006 -0.000006 -0.001723 -0.025194 -17.597600
0.000000 0.000000 0.000000 0.000000 0.000000 -0.000000 -1.311000 90.575200 1.455270 90.275600 -2.796880 11.674000 15.735700 0.000005 -0.000001 85.907300 81.629100 -85.602900 8.984550 -0.406207 -0.000000 8.937680 -1.185570 0.700879 16.377300 -0.000001 -0.000001 14.405300 -5.370640 2.052440 6.456720 -0.000001 -0.000000 6.714310 -5.964270 -0.424725 12.994200 -0.242716 4.980390 -90.964000 4.069370 -76.660600 5.348090 -0.000007 -0.000001 -59.512300 35.981200 -26.021100 24.328600 0.000019 0.000005 9.571880 23.192900 -23.179900 22.291600 -0.000001 0.000005 4.902750 5.281300 0.590763 12.994500 -0.242716 -4.980390 88.744200 9.979940 -82.790700 -5.348130 -0.000001 -0.000004 -62.914400 35.556700 -12.861300 -24.328900 0.000322 -0.000009 1.331270 3.600490 -20.322100 -22.291500 -0.000108 -0.000004 11.715700 5.403250 -3.043430 -2.192480 -6.469440 -0.000000 -173.950000 -12.981900 3.010100 39.081100 -0.000007 -0.000012 -0.203776 0.346375 30.469000 40.985400 -0.000006 -0.000013 -0.329471 6.039980 -71.284500 11.754300 -0.000000 0.000003 -0.000171 -0.001621 -16.639000 -2.192510 6.469440 -0.000001 172.387000 20.813700 -175.592000 -39.081100 -0.002282 -0.040193 -0.227022 0.390592 30.527200 -40.985400 0.000008 0.000006 4.246230 14.703800 -72.833400 -11.754300 -0.000006 -0.000006 -0.001849 -0.026807 -17.663100
0.000000 0.000000 0.000000 0.000000 0.000000 -0.000000 -1.358290 90.586800 1.330810 90.311300 -2.512050 11.721500 15.735700 0.000005 -0.000001 85.807300 81.611400 -85.506300 8.984550 -0.406207 -0.000000 8.970950 -1.217020 0.697095 16.377300 -0.000001 -0.000001 14.868200 -5.630060 2.173280 6.456720 -0.000001 -0.000000 7.167910 -6.317960 0.075777 12.994200 -0.242716 4.980390 -90.933800 3.965210 -76.737100 5.348090 -0.000007 -0.000001 -57.820000 34.167200 -28.057200 24.328600 0.000019 0.000005 10.074200 23.307600 -24.180900 22.291600 -0.000001 0.000005 5.025260 5.281440 0.586731 12.994500 -0.242716 -4.980390 88.738900 9.943870 -82.734800 -5.348130 -0.000001 -0.000004 -62.853800 35.218400 -12.653400 -24.328900 0.000322 -0.000009 1.365990 3.769790 -19.949000 -22.291500 -0.000108 -0.000004 11.752800 5.401410 -2.983260 -2.192480 -6.469440 -0.000000 -173.974000 -12.875400 2.934830 39.081100 -0.000007 -0.000012 -0.203421 0.345887 30.460700 40.985400 -0.000006 -0.000013 -0.311741 6.193870 -71.165600 11.754300 -0.000000 0.000003 -0.000184 -0.001727 -16.642900 -2.192510 6.469440 -0.000001 172.316000 21.137400 -175.569000 -39.081100 -0.002282 -0.040193 -0.225798 0.388333 30.539000 -40.985400 0.000008 0.000006 4.298320 14.697200 -72.795400 -11.754300 -0.000006 -0.000006 -0.001924 -0.027756 -17.701700
